<svg width="75" height="63" viewBox="0 0 41 59" fill="none" xmlns="http://www.w3.org/2000/svg">
    <path d="M0.895996 3.91212C0.895996 2.15926 2.31697 0.738281 4.06984 0.738281H36.9631C38.716 0.738281 40.1369 2.15926 40.1369 3.91212V55.1178C40.1369 56.8707 38.716 58.2917 36.9631 58.2917H4.06983C2.31697 58.2917 0.895996 56.8707 0.895996 55.1178V3.91212Z" fill="#CFCFF9"/>
    <path d="M3.45312 6.25977C3.45312 4.50691 4.8741 3.08594 6.62696 3.08594H34.2669C36.0198 3.08594 37.4407 4.50691 37.4407 6.25978V46.8327C37.4407 48.5856 36.0198 50.0065 34.2669 50.0065H6.62696C4.8741 50.0065 3.45312 48.5856 3.45312 46.8327V6.25977Z" fill="#5034FF"/>
    <path d="M22.1965 53.9457C22.1965 54.8736 21.4444 55.6257 20.5165 55.6257C19.5886 55.6257 18.8364 54.8736 18.8364 53.9457C18.8364 53.0178 19.5886 52.2656 20.5165 52.2656C21.4444 52.2656 22.1965 53.0178 22.1965 53.9457Z" fill="#6161FF"/>
    <mask id="mask0_1321_57513" style="mask-type:alpha" maskUnits="userSpaceOnUse" x="3" y="3" width="35" height="48">
        <path d="M3.45264 6.25977C3.45264 4.50691 4.87361 3.08594 6.62648 3.08594H34.2664C36.0193 3.08594 37.4403 4.50691 37.4403 6.25978V46.8327C37.4403 48.5856 36.0193 50.0065 34.2664 50.0065H6.62647C4.87361 50.0065 3.45264 48.5856 3.45264 46.8327V6.25977Z" fill="#6161FF"/>
    </mask>
    <g mask="url(#mask0_1321_57513)">
        <g style="mix-blend-mode:multiply">
            <path d="M0.294922 -3.56055H44.7054V59.6021L22.8023 28.9165L0.294922 -3.56055Z" fill="#1F0F83"/>
        </g>
    </g>
</svg>
