<svg width="75" height="63" viewBox="0 0 57 61" fill="none" xmlns="http://www.w3.org/2000/svg">
    <path d="M26.6964 0.915114C27.7644 0.111724 29.2351 0.111723 30.3031 0.915113L54.7322 19.2908C57.0345 21.0226 55.8097 24.6883 52.9288 24.6883H4.07068C1.18978 24.6883 -0.0349834 21.0226 2.26729 19.2908L26.6964 0.915114Z" fill="#CFCFF9"/>
    <path d="M52.0985 19.3672H4.59846C2.21359 19.3672 0.280273 20.7898 0.280273 22.5447V57.4976C0.280273 59.2525 2.21359 60.6751 4.59846 60.6751H52.0985C54.4833 60.6751 56.4167 59.2525 56.4167 57.4976V22.5447C56.4167 20.7898 54.4833 19.3672 52.0985 19.3672Z" fill="#CFCFF9"/>
    <path fill-rule="evenodd" clip-rule="evenodd" d="M0.804702 21.0276C0.470304 21.4789 0.280273 21.9964 0.280273 22.5466V57.4994C0.280273 59.2543 2.21359 60.677 4.59846 60.677H52.0985C54.4833 60.677 56.4167 59.2543 56.4167 57.4994V22.5466C56.4167 22.4514 56.411 22.3571 56.3998 22.264L28.986 42.6269L0.804702 21.0276Z" fill="#7D7DFF"/>
    <path d="M6.48828 14.6033C6.48828 12.9464 7.83143 11.6033 9.48828 11.6033H47.5393C49.1962 11.6033 50.5393 12.9464 50.5393 14.6033V26.0086C50.5393 26.9774 50.0714 27.8866 49.283 28.4498L33.8656 39.4622C33.3568 39.8257 32.7471 40.021 32.1218 40.021H26.0957C25.4294 40.021 24.782 39.7992 24.2557 39.3905L7.64826 26.4939C6.91644 25.9256 6.48828 25.051 6.48828 24.1244V14.6033Z" fill="#6161FF"/>
    <mask id="mask0_1321_57513" style="mask-type:alpha" maskUnits="userSpaceOnUse" x="0" y="19" width="57" height="42">
        <path d="M52.0985 19.3689H4.59846C2.21359 19.3689 0.280273 20.7915 0.280273 22.5464V57.4993C0.280273 59.2542 2.21359 60.6768 4.59846 60.6768H52.0985C54.4833 60.6768 56.4167 59.2542 56.4167 57.4993V22.5464C56.4167 20.7915 54.4833 19.3689 52.0985 19.3689Z" fill="#CFCFF9"/>
    </mask>
    <g mask="url(#mask0_1321_57513)">
        <path d="M28.5139 36.0293L57.6689 61.159H-0.641077L28.5139 36.0293Z" fill="#1F0F83"/>
    </g>
</svg>
