<svg width="75" height="63" viewBox="0 0 75 63" fill="none" xmlns="http://www.w3.org/2000/svg">
    <path fill-rule="evenodd" clip-rule="evenodd" d="M10 0C4.47715 0 0 4.47714 0 9.99999V32.7219C0 38.2447 4.47715 42.7219 9.99999 42.7219H12.1094V49.6012C12.1094 51.4742 14.4533 52.3196 15.6489 50.8779L22.4125 42.7219H45.3571C50.88 42.7219 55.3571 38.2447 55.3571 32.7219V10C55.3571 4.47715 50.88 0 45.3572 0H10Z" fill="#CFCFF9"/>
    <path d="M30.3569 40.4104C30.3569 28.0826 40.3506 18 52.6784 18V18C65.0061 18 74.9998 27.9936 74.9998 40.3214V59C74.9998 61.2091 73.2089 63 70.9998 63H52.8569C40.4305 63 30.3569 52.8368 30.3569 40.4104V40.4104Z" fill="#6161FF"/>
    <path fill-rule="evenodd" clip-rule="evenodd" d="M55.3569 18.1591C54.4787 18.054 53.5849 18 52.6784 18C40.3506 18 30.3569 28.0826 30.3569 40.4104C30.3569 41.1904 30.3966 41.9616 30.4741 42.7219H45.3569C50.8798 42.7219 55.3569 38.2447 55.3569 32.7219V18.1591Z" fill="#1F0F83"/>
</svg>
